<svg width="53" height="76" viewBox="0 0 53 76" fill="none" xmlns="http://www.w3.org/2000/svg">
<path fill-rule="evenodd" clip-rule="evenodd" d="M23.2988 64.687C23.2988 64.2747 23.633 63.9405 24.0452 63.9405V63.9405H42.1673V63.9405C42.3927 63.9405 42.6088 64.0301 42.7681 64.1896V64.1896V64.1896C43.0863 64.5081 43.265 64.9398 43.265 65.39V65.39V65.4419V65.4419C43.265 65.6433 43.1017 65.8066 42.9002 65.8066V65.8066H26.0979C25.5826 65.8066 25.1649 66.2244 25.1649 66.7397V67.6727V69.1656V70.0987C25.1649 70.614 25.5826 71.0317 26.0979 71.0317H50.2284V71.0317C51.6395 71.0317 52.7834 69.8878 52.7834 68.4768V68.416V68.416C52.7834 67.1806 51.7827 66.1786 50.5472 66.1771L50.2284 66.1767V66.1767C48.5799 66.1784 47.2426 64.8394 47.2426 63.1909V63.1909L47.2431 63.155C47.2626 61.5201 48.5935 60.2051 50.2284 60.2051V60.2051V60.2051C51.639 60.2069 52.7834 59.0639 52.7834 57.6533V8.11894C52.7834 3.70923 49.2096 0.133918 44.7999 0.13199L9.11714 0.116394L8.20363 0.116394C3.79255 0.116394 0.216675 3.69228 0.216675 8.10335V9.07372L0.216675 63.5641C0.216675 64.5444 0.409748 65.515 0.784871 66.4207C1.15999 67.3263 1.70982 68.1492 2.40296 68.8423C3.0961 69.5354 3.91897 70.0853 4.8246 70.4604C5.73023 70.8355 6.70087 71.0286 7.68112 71.0286L10.6093 71.0317V71.0317C11.0215 71.0317 11.3557 71.3659 11.3557 71.7782V71.7782V75.1372C11.3557 75.5494 11.6899 75.8836 12.1021 75.8836H12.5635C12.751 75.8836 12.9359 75.84 13.1036 75.7561L16.9934 73.8112V73.8112C17.2036 73.7061 17.4509 73.7061 17.6611 73.8112V73.8112L21.5509 75.7561C21.7186 75.84 21.9035 75.8836 22.091 75.8836H22.5524C22.9646 75.8836 23.2988 75.5494 23.2988 75.1372V64.687V64.687ZM13.7745 73.3432C13.5258 73.4789 13.2226 73.2989 13.2226 73.0156V64.687C13.2226 64.2747 13.5568 63.9405 13.969 63.9405H20.687C21.0993 63.9405 21.4335 64.2747 21.4335 64.687V73.0156C21.4335 73.2989 21.1302 73.4789 20.8815 73.3432L17.6855 71.5999C17.4627 71.4784 17.1934 71.4784 16.9706 71.5999L13.7745 73.3432ZM7.92627 60.2083H42.9012C43.1025 60.2083 43.2658 60.3715 43.2658 60.5729V60.8001C43.2658 61.1381 43.1315 61.4622 42.8925 61.7012V61.7012C42.6536 61.9401 42.3295 62.0744 41.9915 62.0744H9.11714L8.61622 62.0733C8.10011 62.0722 7.68112 62.4902 7.68112 63.0063V63.0063C7.68112 63.5209 8.09761 63.9383 8.61212 63.9394L9.11714 63.9405H10.9833C11.3955 63.9405 11.7297 64.2747 11.7297 64.687V65.4334C11.7297 65.8456 11.3955 66.1798 10.9833 66.1798H7.92627C7.13439 66.1798 6.37495 65.8653 5.81501 65.3053C5.25506 64.7454 4.94049 63.9859 4.94049 63.1941C4.94049 62.4022 5.25506 61.6427 5.81501 61.0828C6.37495 60.5229 7.13439 60.2083 7.92627 60.2083Z" fill="#D9D9D9" style="fill:#D9D9D9;fill:color(display-p3 0.8510 0.8510 0.8510);fill-opacity:1;"/>
<path fill-rule="evenodd" clip-rule="evenodd" d="M23.2988 64.687C23.2988 64.2747 23.633 63.9405 24.0452 63.9405V63.9405H42.1673V63.9405C42.3927 63.9405 42.6088 64.0301 42.7681 64.1896V64.1896V64.1896C43.0863 64.5081 43.265 64.9398 43.265 65.39V65.39V65.4419V65.4419C43.265 65.6433 43.1017 65.8066 42.9002 65.8066V65.8066H26.0979C25.5826 65.8066 25.1649 66.2244 25.1649 66.7397V67.6727V69.1656V70.0987C25.1649 70.614 25.5826 71.0317 26.0979 71.0317H50.2284V71.0317C51.6395 71.0317 52.7834 69.8878 52.7834 68.4768V68.416V68.416C52.7834 67.1806 51.7827 66.1786 50.5472 66.1771L50.2284 66.1767V66.1767C48.5799 66.1784 47.2426 64.8394 47.2426 63.1909V63.1909L47.2431 63.155C47.2626 61.5201 48.5935 60.2051 50.2284 60.2051V60.2051V60.2051C51.639 60.2069 52.7834 59.0639 52.7834 57.6533V8.11894C52.7834 3.70923 49.2096 0.133918 44.7999 0.13199L9.11714 0.116394L8.20363 0.116394C3.79255 0.116394 0.216675 3.69228 0.216675 8.10335V9.07372L0.216675 63.5641C0.216675 64.5444 0.409748 65.515 0.784871 66.4207C1.15999 67.3263 1.70982 68.1492 2.40296 68.8423C3.0961 69.5354 3.91897 70.0853 4.8246 70.4604C5.73023 70.8355 6.70087 71.0286 7.68112 71.0286L10.6093 71.0317V71.0317C11.0215 71.0317 11.3557 71.3659 11.3557 71.7782V71.7782V75.1372C11.3557 75.5494 11.6899 75.8836 12.1021 75.8836H12.5635C12.751 75.8836 12.9359 75.84 13.1036 75.7561L16.9934 73.8112V73.8112C17.2036 73.7061 17.4509 73.7061 17.6611 73.8112V73.8112L21.5509 75.7561C21.7186 75.84 21.9035 75.8836 22.091 75.8836H22.5524C22.9646 75.8836 23.2988 75.5494 23.2988 75.1372V64.687V64.687ZM13.7745 73.3432C13.5258 73.4789 13.2226 73.2989 13.2226 73.0156V64.687C13.2226 64.2747 13.5568 63.9405 13.969 63.9405H20.687C21.0993 63.9405 21.4335 64.2747 21.4335 64.687V73.0156C21.4335 73.2989 21.1302 73.4789 20.8815 73.3432L17.6855 71.5999C17.4627 71.4784 17.1934 71.4784 16.9706 71.5999L13.7745 73.3432ZM7.92627 60.2083H42.9012C43.1025 60.2083 43.2658 60.3715 43.2658 60.5729V60.8001C43.2658 61.1381 43.1315 61.4622 42.8925 61.7012V61.7012C42.6536 61.9401 42.3295 62.0744 41.9915 62.0744H9.11714L8.61622 62.0733C8.10011 62.0722 7.68112 62.4902 7.68112 63.0063V63.0063C7.68112 63.5209 8.09761 63.9383 8.61212 63.9394L9.11714 63.9405H10.9833C11.3955 63.9405 11.7297 64.2747 11.7297 64.687V65.4334C11.7297 65.8456 11.3955 66.1798 10.9833 66.1798H7.92627C7.13439 66.1798 6.37495 65.8653 5.81501 65.3053C5.25506 64.7454 4.94049 63.9859 4.94049 63.1941C4.94049 62.4022 5.25506 61.6427 5.81501 61.0828C6.37495 60.5229 7.13439 60.2083 7.92627 60.2083Z" fill="url(#paint0_linear_384_2879)" style=""/>
<path d="M26.3881 28.1569C23.5397 28.1569 20.9869 27.1895 19.3745 25.6578C18.7565 25.0935 18.5953 24.4754 19.1596 23.8574L20.1001 22.7287C20.6375 22.1107 21.2556 21.9763 21.8736 22.5138C22.9485 23.4274 24.7221 24.2067 26.1194 24.2067C27.6511 24.2067 28.6185 23.6424 28.6185 22.7825C28.6185 21.5464 27.1405 21.412 25.1789 20.8208C22.6529 20.0684 19.5895 18.6711 19.5895 15.3121C19.5895 12.1949 22.3842 10.0452 26.3881 10.0452C28.8066 10.0452 30.8757 10.8513 32.3 11.9799C32.9449 12.5174 33.1599 13.1086 32.5956 13.7535L31.6819 14.8821C31.1713 15.5002 30.5802 15.6077 29.9084 15.0971C29.0485 14.4253 27.8661 13.7804 26.4687 13.7804C25.2326 13.7804 24.4265 14.2909 24.4265 15.0971C24.4265 16.0914 25.6895 16.5482 27.0062 16.9513C29.989 17.8649 33.4555 18.8323 33.4555 22.7556C33.4555 26.2758 30.2308 28.1569 26.3881 28.1569Z" fill="white" fill-opacity="0.8" style="fill:white;fill-opacity:0.8;"/>
<path d="M19.7287 50.3415C18.9225 50.3415 18.4657 49.8847 18.4657 49.0785V34.1377C18.4657 33.3316 18.9225 32.8747 19.7287 32.8747H21.9322C22.7384 32.8747 23.1952 33.3316 23.1952 34.1377V39.7002H29.8326V34.1377C29.8326 33.3316 30.2625 32.8747 31.0687 32.8747H33.2991C34.1052 32.8747 34.5352 33.3316 34.5352 34.1377V49.0785C34.5352 49.8847 34.1052 50.3415 33.2991 50.3415H31.0687C30.2625 50.3415 29.8326 49.8847 29.8326 49.0785V43.5429H23.1952V49.0785C23.1952 49.8847 22.7384 50.3415 21.9322 50.3415H19.7287Z" fill="white" fill-opacity="0.8" style="fill:white;fill-opacity:0.8;"/>
<defs>
<linearGradient id="paint0_linear_384_2879" x1="0.216676" y1="76.2537" x2="52.4678" y2="0.116391" gradientUnits="userSpaceOnUse">
<stop stop-color="#6D60FF" style="stop-color:#6D60FF;stop-color:color(display-p3 0.4257 0.3758 1.0000);stop-opacity:1;"/>
<stop offset="0.383225" stop-color="#4B70F5" style="stop-color:#4B70F5;stop-color:color(display-p3 0.2944 0.4407 0.9595);stop-opacity:1;"/>
<stop offset="0.689912" stop-color="#426DDB" style="stop-color:#426DDB;stop-color:color(display-p3 0.2585 0.4265 0.8584);stop-opacity:1;"/>
<stop offset="0.929545" stop-color="#5460C5" style="stop-color:#5460C5;stop-color:color(display-p3 0.3302 0.3746 0.7743);stop-opacity:1;"/>
</linearGradient>
</defs>
</svg>
