<svg width="289" height="77" viewBox="0 0 289 77" fill="none" xmlns="http://www.w3.org/2000/svg">
<path fill-rule="evenodd" clip-rule="evenodd" d="M23.1055 65.187C23.1055 64.7747 23.4396 64.4405 23.8519 64.4405V64.4405H41.974V64.4405C42.1993 64.4405 42.4155 64.5301 42.5748 64.6896V64.6896V64.6896C42.8929 65.0081 43.0717 65.4398 43.0717 65.89V65.89V65.9419V65.9419C43.0717 66.1433 42.9084 66.3066 42.7069 66.3066V66.3066H25.9046C25.3893 66.3066 24.9715 66.7244 24.9715 67.2397V68.1727V69.6656V70.5987C24.9715 71.114 25.3893 71.5317 25.9046 71.5317H50.0351V71.5317C51.4462 71.5317 52.59 70.3878 52.59 68.9768V68.916V68.916C52.59 67.6806 51.5893 66.6786 50.3539 66.6771L50.0351 66.6767V66.6767C48.3866 66.6784 47.0493 65.3394 47.0493 63.6909V63.6909L47.0498 63.655C47.0693 62.0201 48.4001 60.7051 50.0351 60.7051V60.7051V60.7051C51.4456 60.7069 52.59 59.5639 52.59 58.1533V8.61894C52.59 4.20923 49.0163 0.633918 44.6066 0.63199L8.92382 0.616394L8.0103 0.616394C3.59923 0.616394 0.0233459 4.19228 0.0233459 8.60335V9.57372L0.0233459 64.0641C0.0233459 65.0444 0.216419 66.015 0.591542 66.9207C0.966665 67.8263 1.51649 68.6492 2.20963 69.3423C2.90277 70.0354 3.72564 70.5853 4.63127 70.9604C5.5369 71.3355 6.50754 71.5286 7.48779 71.5286L10.4159 71.5317V71.5317C10.8282 71.5317 11.1624 71.8659 11.1624 72.2782V72.2782V75.6372C11.1624 76.0494 11.4966 76.3836 11.9088 76.3836H12.3701C12.5576 76.3836 12.7426 76.34 12.9103 76.2561L16.8001 74.3112V74.3112C17.0103 74.2061 17.2576 74.2061 17.4677 74.3112V74.3112L21.3576 76.2561C21.5253 76.34 21.7102 76.3836 21.8977 76.3836H22.359C22.7713 76.3836 23.1055 76.0494 23.1055 75.6372V65.187V65.187ZM13.5812 73.8432C13.3325 73.9789 13.0293 73.7989 13.0293 73.5156V65.187C13.0293 64.7747 13.3635 64.4405 13.7757 64.4405H20.4937C20.9059 64.4405 21.2401 64.7747 21.2401 65.187V73.5156C21.2401 73.7989 20.9369 73.9789 20.6882 73.8432L17.4921 72.0999C17.2693 71.9784 17.0001 71.9784 16.7773 72.0999L13.5812 73.8432ZM7.73294 60.7083H42.7079C42.9092 60.7083 43.0724 60.8715 43.0724 61.0729V61.3001C43.0724 61.6381 42.9382 61.9622 42.6992 62.2012V62.2012C42.4602 62.4401 42.1361 62.5744 41.7982 62.5744H8.92381L8.42289 62.5733C7.90678 62.5722 7.48779 62.9902 7.48779 63.5063V63.5063C7.48779 64.0209 7.90428 64.4383 8.41879 64.4394L8.92381 64.4405H10.7899C11.2022 64.4405 11.5364 64.7747 11.5364 65.187V65.9334C11.5364 66.3456 11.2022 66.6798 10.7899 66.6798H7.73294C6.94106 66.6798 6.18162 66.3653 5.62168 65.8053C5.06173 65.2454 4.74716 64.4859 4.74716 63.6941C4.74716 62.9022 5.06173 62.1427 5.62168 61.5828C6.18162 61.0229 6.94106 60.7083 7.73294 60.7083Z" fill="#D9D9D9" style="fill:#D9D9D9;fill:color(display-p3 0.8510 0.8510 0.8510);fill-opacity:1;"/>
<path fill-rule="evenodd" clip-rule="evenodd" d="M23.1055 65.187C23.1055 64.7747 23.4396 64.4405 23.8519 64.4405V64.4405H41.974V64.4405C42.1993 64.4405 42.4155 64.5301 42.5748 64.6896V64.6896V64.6896C42.8929 65.0081 43.0717 65.4398 43.0717 65.89V65.89V65.9419V65.9419C43.0717 66.1433 42.9084 66.3066 42.7069 66.3066V66.3066H25.9046C25.3893 66.3066 24.9715 66.7244 24.9715 67.2397V68.1727V69.6656V70.5987C24.9715 71.114 25.3893 71.5317 25.9046 71.5317H50.0351V71.5317C51.4462 71.5317 52.59 70.3878 52.59 68.9768V68.916V68.916C52.59 67.6806 51.5893 66.6786 50.3539 66.6771L50.0351 66.6767V66.6767C48.3866 66.6784 47.0493 65.3394 47.0493 63.6909V63.6909L47.0498 63.655C47.0693 62.0201 48.4001 60.7051 50.0351 60.7051V60.7051V60.7051C51.4456 60.7069 52.59 59.5639 52.59 58.1533V8.61894C52.59 4.20923 49.0163 0.633918 44.6066 0.63199L8.92382 0.616394L8.0103 0.616394C3.59923 0.616394 0.0233459 4.19228 0.0233459 8.60335V9.57372L0.0233459 64.0641C0.0233459 65.0444 0.216419 66.015 0.591542 66.9207C0.966665 67.8263 1.51649 68.6492 2.20963 69.3423C2.90277 70.0354 3.72564 70.5853 4.63127 70.9604C5.5369 71.3355 6.50754 71.5286 7.48779 71.5286L10.4159 71.5317V71.5317C10.8282 71.5317 11.1624 71.8659 11.1624 72.2782V72.2782V75.6372C11.1624 76.0494 11.4966 76.3836 11.9088 76.3836H12.3701C12.5576 76.3836 12.7426 76.34 12.9103 76.2561L16.8001 74.3112V74.3112C17.0103 74.2061 17.2576 74.2061 17.4677 74.3112V74.3112L21.3576 76.2561C21.5253 76.34 21.7102 76.3836 21.8977 76.3836H22.359C22.7713 76.3836 23.1055 76.0494 23.1055 75.6372V65.187V65.187ZM13.5812 73.8432C13.3325 73.9789 13.0293 73.7989 13.0293 73.5156V65.187C13.0293 64.7747 13.3635 64.4405 13.7757 64.4405H20.4937C20.9059 64.4405 21.2401 64.7747 21.2401 65.187V73.5156C21.2401 73.7989 20.9369 73.9789 20.6882 73.8432L17.4921 72.0999C17.2693 71.9784 17.0001 71.9784 16.7773 72.0999L13.5812 73.8432ZM7.73294 60.7083H42.7079C42.9092 60.7083 43.0724 60.8715 43.0724 61.0729V61.3001C43.0724 61.6381 42.9382 61.9622 42.6992 62.2012V62.2012C42.4602 62.4401 42.1361 62.5744 41.7982 62.5744H8.92381L8.42289 62.5733C7.90678 62.5722 7.48779 62.9902 7.48779 63.5063V63.5063C7.48779 64.0209 7.90428 64.4383 8.41879 64.4394L8.92381 64.4405H10.7899C11.2022 64.4405 11.5364 64.7747 11.5364 65.187V65.9334C11.5364 66.3456 11.2022 66.6798 10.7899 66.6798H7.73294C6.94106 66.6798 6.18162 66.3653 5.62168 65.8053C5.06173 65.2454 4.74716 64.4859 4.74716 63.6941C4.74716 62.9022 5.06173 62.1427 5.62168 61.5828C6.18162 61.0229 6.94106 60.7083 7.73294 60.7083Z" fill="url(#paint0_linear_31_11203)" style=""/>
<path d="M26.1948 28.6569C23.3463 28.6569 20.7935 27.6895 19.1812 26.1578C18.5631 25.5935 18.4019 24.9754 18.9662 24.3574L19.9067 23.2287C20.4442 22.6107 21.0622 22.4763 21.6803 23.0138C22.7552 23.9274 24.5287 24.7067 25.9261 24.7067C27.4578 24.7067 28.4252 24.1424 28.4252 23.2825C28.4252 22.0464 26.9472 21.912 24.9855 21.3208C22.4596 20.5684 19.3962 19.1711 19.3962 15.8121C19.3962 12.6949 22.1908 10.5452 26.1948 10.5452C28.6133 10.5452 30.6824 11.3513 32.1066 12.4799C32.7515 13.0174 32.9665 13.6086 32.4022 14.2535L31.4886 15.3821C30.978 16.0002 30.3868 16.1077 29.715 15.5971C28.8551 14.9253 27.6727 14.2804 26.2754 14.2804C25.0393 14.2804 24.2331 14.7909 24.2331 15.5971C24.2331 16.5914 25.4961 17.0482 26.8128 17.4513C29.7956 18.3649 33.2621 19.3323 33.2621 23.2556C33.2621 26.7758 30.0375 28.6569 26.1948 28.6569Z" fill="white" fill-opacity="0.8" style="fill:white;fill-opacity:0.8;"/>
<path d="M19.5354 50.8415C18.7292 50.8415 18.2724 50.3847 18.2724 49.5785V34.6377C18.2724 33.8316 18.7292 33.3747 19.5354 33.3747H21.7389C22.545 33.3747 23.0018 33.8316 23.0018 34.6377V40.2002H29.6392V34.6377C29.6392 33.8316 30.0692 33.3747 30.8753 33.3747H33.1057C33.9119 33.3747 34.3418 33.8316 34.3418 34.6377V49.5785C34.3418 50.3847 33.9119 50.8415 33.1057 50.8415H30.8753C30.0692 50.8415 29.6392 50.3847 29.6392 49.5785V44.0429H23.0018V49.5785C23.0018 50.3847 22.545 50.8415 21.7389 50.8415H19.5354Z" fill="white" fill-opacity="0.8" style="fill:white;fill-opacity:0.8;"/>
<path d="M84.4204 52.2757C82.399 52.2757 80.5875 51.9475 78.9861 51.2912C77.3847 50.6349 76.0983 49.6635 75.127 48.3771C74.1819 47.0907 73.6831 45.5418 73.6306 43.7304H80.7975C80.9026 44.7543 81.257 45.5418 81.8608 46.0931C82.4646 46.6182 83.2522 46.8807 84.2235 46.8807C85.2211 46.8807 86.0087 46.6576 86.5863 46.2113C87.1638 45.7387 87.4526 45.0955 87.4526 44.2817C87.4526 43.5991 87.2163 43.0347 86.7438 42.5884C86.2975 42.1421 85.733 41.7746 85.0505 41.4858C84.3942 41.197 83.4491 40.8689 82.2152 40.5013C80.43 39.95 78.973 39.3987 77.8441 38.8474C76.7152 38.2961 75.7439 37.4823 74.9301 36.4059C74.1162 35.3295 73.7093 33.925 73.7093 32.1923C73.7093 29.6196 74.6413 27.6113 76.5052 26.1674C78.3692 24.6972 80.7975 23.9621 83.7903 23.9621C86.8357 23.9621 89.2903 24.6972 91.1542 26.1674C93.0182 27.6113 94.0158 29.6327 94.147 32.2317H86.8619C86.8094 31.3391 86.4812 30.6434 85.8774 30.1446C85.2736 29.6196 84.4992 29.3571 83.5541 29.3571C82.7402 29.3571 82.0839 29.5802 81.5851 30.0265C81.0863 30.4465 80.8369 31.0635 80.8369 31.8773C80.8369 32.7699 81.257 33.4656 82.097 33.9644C82.9371 34.4632 84.2498 35.0014 86.035 35.5789C87.8201 36.1828 89.264 36.7603 90.3666 37.3116C91.4955 37.8629 92.4669 38.6636 93.2807 39.7137C94.0945 40.7639 94.5014 42.1159 94.5014 43.7698C94.5014 45.3449 94.0945 46.7757 93.2807 48.0621C92.4931 49.3485 91.338 50.3723 89.8153 51.1337C88.2927 51.895 86.4944 52.2757 84.4204 52.2757ZM97.3066 41.0133C97.3066 38.7293 97.766 36.7341 98.6848 35.0276C99.6299 33.3212 100.929 32.0086 102.583 31.0897C104.264 30.1709 106.18 29.7115 108.333 29.7115C111.089 29.7115 113.386 30.4334 115.224 31.8773C117.088 33.3212 118.309 35.3558 118.886 37.9811H111.719C111.115 36.3009 109.947 35.4608 108.215 35.4608C106.981 35.4608 105.996 35.9465 105.261 36.9178C104.526 37.8629 104.159 39.2281 104.159 41.0133C104.159 42.7984 104.526 44.1767 105.261 45.148C105.996 46.0931 106.981 46.5657 108.215 46.5657C109.947 46.5657 111.115 45.7256 111.719 44.0454H118.886C118.309 46.6182 117.088 48.6397 115.224 50.1098C113.36 51.58 111.063 52.315 108.333 52.315C106.18 52.315 104.264 51.8556 102.583 50.9368C100.929 50.0179 99.6299 48.7053 98.6848 46.9989C97.766 45.2924 97.3066 43.2972 97.3066 41.0133ZM135.995 29.7902C138.516 29.7902 140.537 30.6303 142.06 32.3105C143.582 33.9644 144.344 36.2484 144.344 39.1624V52H137.649V40.0682C137.649 38.598 137.268 37.456 136.507 36.6422C135.746 35.8283 134.722 35.4214 133.436 35.4214C132.149 35.4214 131.125 35.8283 130.364 36.6422C129.603 37.456 129.222 38.598 129.222 40.0682V52H122.488V22.8595H129.222V32.9799C129.905 32.0086 130.837 31.2341 132.018 30.6566C133.199 30.079 134.525 29.7902 135.995 29.7902ZM159.025 52.315C156.872 52.315 154.93 51.8556 153.197 50.9368C151.491 50.0179 150.139 48.7053 149.141 46.9989C148.17 45.2924 147.684 43.2972 147.684 41.0133C147.684 38.7555 148.183 36.7734 149.18 35.067C150.178 33.3343 151.543 32.0086 153.276 31.0897C155.009 30.1709 156.951 29.7115 159.104 29.7115C161.257 29.7115 163.199 30.1709 164.932 31.0897C166.665 32.0086 168.03 33.3343 169.027 35.067C170.025 36.7734 170.524 38.7555 170.524 41.0133C170.524 43.271 170.012 45.2662 168.988 46.9989C167.99 48.7053 166.612 50.0179 164.853 50.9368C163.121 51.8556 161.178 52.315 159.025 52.315ZM159.025 46.4869C160.312 46.4869 161.401 46.0144 162.294 45.0693C163.213 44.1242 163.672 42.7722 163.672 41.0133C163.672 39.2543 163.226 37.9023 162.333 36.9572C161.467 36.0121 160.39 35.5396 159.104 35.5396C157.791 35.5396 156.702 36.0121 155.836 36.9572C154.969 37.8761 154.536 39.2281 154.536 41.0133C154.536 42.7722 154.956 44.1242 155.796 45.0693C156.662 46.0144 157.739 46.4869 159.025 46.4869ZM184.099 52.315C181.946 52.315 180.003 51.8556 178.27 50.9368C176.564 50.0179 175.212 48.7053 174.214 46.9989C173.243 45.2924 172.757 43.2972 172.757 41.0133C172.757 38.7555 173.256 36.7734 174.254 35.067C175.251 33.3343 176.617 32.0086 178.349 31.0897C180.082 30.1709 182.025 29.7115 184.177 29.7115C186.33 29.7115 188.273 30.1709 190.005 31.0897C191.738 32.0086 193.103 33.3343 194.101 35.067C195.098 36.7734 195.597 38.7555 195.597 41.0133C195.597 43.271 195.085 45.2662 194.061 46.9989C193.064 48.7053 191.686 50.0179 189.927 50.9368C188.194 51.8556 186.251 52.315 184.099 52.315ZM184.099 46.4869C185.385 46.4869 186.474 46.0144 187.367 45.0693C188.286 44.1242 188.745 42.7722 188.745 41.0133C188.745 39.2543 188.299 37.9023 187.406 36.9572C186.54 36.0121 185.464 35.5396 184.177 35.5396C182.865 35.5396 181.775 36.0121 180.909 36.9572C180.043 37.8761 179.609 39.2281 179.609 41.0133C179.609 42.7722 180.029 44.1242 180.869 45.0693C181.736 46.0144 182.812 46.4869 184.099 46.4869ZM205.903 22.8595V52H199.17V22.8595H205.903ZM233.151 24.6316V52H228.661V40.0288H215.785V52H211.295V24.6316H215.785V36.3665H228.661V24.6316H233.151ZM258.711 30.3022V52H254.222V49.4404C253.513 50.333 252.581 51.0418 251.426 51.5668C250.297 52.0656 249.089 52.315 247.803 52.315C246.096 52.315 244.561 51.9606 243.195 51.2518C241.857 50.543 240.793 49.4929 240.006 48.1015C239.244 46.7101 238.864 45.0299 238.864 43.061V30.3022H243.314V42.3915C243.314 44.3342 243.799 45.8306 244.771 46.8807C245.742 47.9046 247.068 48.4165 248.748 48.4165C250.428 48.4165 251.754 47.9046 252.725 46.8807C253.723 45.8306 254.222 44.3342 254.222 42.3915V30.3022H258.711ZM269.123 33.5312C269.884 32.4811 270.921 31.6279 272.234 30.9716C273.573 30.289 275.056 29.9477 276.684 29.9477C278.6 29.9477 280.333 30.4072 281.882 31.326C283.431 32.2449 284.652 33.5575 285.544 35.2639C286.437 36.9441 286.883 38.8737 286.883 41.0526C286.883 43.2316 286.437 45.1874 285.544 46.9201C284.652 48.6265 283.418 49.9654 281.843 50.9368C280.294 51.8819 278.574 52.3544 276.684 52.3544C275.004 52.3544 273.507 52.0263 272.195 51.3699C270.908 50.7136 269.884 49.8735 269.123 48.8497V52H264.634V22.8595H269.123V33.5312ZM282.315 41.0526C282.315 39.5562 282 38.2698 281.37 37.1935C280.766 36.0909 279.952 35.2639 278.928 34.7126C277.931 34.135 276.855 33.8463 275.699 33.8463C274.571 33.8463 273.494 34.135 272.47 34.7126C271.473 35.2902 270.659 36.1303 270.029 37.2329C269.425 38.3355 269.123 39.635 269.123 41.1314C269.123 42.6278 269.425 43.9404 270.029 45.0693C270.659 46.1719 271.473 47.012 272.47 47.5895C273.494 48.1671 274.571 48.4559 275.699 48.4559C276.855 48.4559 277.931 48.1671 278.928 47.5895C279.952 46.9857 280.766 46.1194 281.37 44.9905C282 43.8617 282.315 42.549 282.315 41.0526Z" fill="#5561CB" style="fill:#5561CB;fill:color(display-p3 0.3326 0.3790 0.7965);fill-opacity:1;"/>
<defs>
<linearGradient id="paint0_linear_31_11203" x1="0.0233473" y1="76.7537" x2="52.2744" y2="0.616391" gradientUnits="userSpaceOnUse">
<stop stop-color="#6D60FF" style="stop-color:#6D60FF;stop-color:color(display-p3 0.4257 0.3758 1.0000);stop-opacity:1;"/>
<stop offset="0.383225" stop-color="#4B70F5" style="stop-color:#4B70F5;stop-color:color(display-p3 0.2944 0.4407 0.9595);stop-opacity:1;"/>
<stop offset="0.689912" stop-color="#426DDB" style="stop-color:#426DDB;stop-color:color(display-p3 0.2585 0.4265 0.8584);stop-opacity:1;"/>
<stop offset="0.929545" stop-color="#5460C5" style="stop-color:#5460C5;stop-color:color(display-p3 0.3302 0.3746 0.7743);stop-opacity:1;"/>
</linearGradient>
</defs>
</svg>
